<svg xmlns="http://www.w3.org/2000/svg" viewBox="0 0 64 64" aria-hidden="true">
  <path fill="currentColor" fill-rule="evenodd" transform="matrix(0.0707142183 0 0 0.0707142183 -10.1453771327 -6.6985476684)" d="M604.5 217.02C606.81 216.24 606.59 216.47 607.5 213.9C608.19 214.56 607.65 215.05 608.43 215.46C608.44 215.47 609.79 214.98 610.01 214.98C611.78 215.02 613.66 215.81 615.5 215.91C617.17 218.01 618.83 220.11 620.5 222.21C623.59 221.23 626.69 220.98 629.31 223.83C630.37 224.98 631.62 227.75 633.69 227.75C635.76 227.75 633.16 227.45 635.5 227C636.54 228.48 636.6 229.57 637.42 230.97C637.89 231.77 647.26 240.24 648.03 240.65C648.91 241.1 650.32 241.25 651.26 241.5C651.2 241.9 650.56 241.96 650.34 242.31C649.58 243.54 654.52 245.89 655.17 246.69C655.89 247.57 655.88 249.04 657.03 249.74C657.99 250.33 659.05 249.86 659.84 250.71C660.28 251.18 659.98 252.35 660.34 252.97C660.95 254.05 663.42 256.34 664.5 257C665.59 257.66 667.15 257.43 667.96 258.5C668.67 259.43 668.65 261.53 668.97 262.5C670.08 262.97 672.35 263.38 673.26 264.1C674.84 265.34 674.71 268.22 676.53 269.5C677.65 270.29 679.33 270.35 680.3 271.15C681.99 272.55 683.4 275.84 684 277.5C689.02 280.71 690.3 282.08 693.5 287C695.39 288.17 697.27 289.33 699.16 290.5C700.75 295.84 701.19 294.6 705.43 296.91C705.66 297.03 714.92 306.28 715 306.57C715.19 307.19 714.89 307.87 715 308.5C716.23 309.27 717.22 309.33 718.52 309.96C721.07 311.21 723.62 314.94 725.59 317C726.21 317.66 728.81 319.84 728.76 320.72C728.72 321.41 727.89 321.83 727.7 322.5C730.64 323.56 734.52 324.18 735.98 327.47C736.47 328.57 736.36 329.66 736.95 330.7C738.17 332.86 740.88 332.82 740.7 335.5C746.41 338.36 747.29 341.36 751.56 345.49C752.33 346.23 754.29 346.89 755.26 347.5C754.99 348.23 754.11 348.7 753.98 349.47C753.49 352.28 760.42 353.16 761.77 353.5C761.08 354.43 760.07 355.05 760.2 356.34C760.33 357.53 762.65 359.24 763.49 360.01C767.12 363.37 770.39 366.2 773.5 370.02C775.27 370.61 775.59 370.23 777.5 369.7C780.77 374.37 777.64 375.56 784.3 376.5C784.39 376.92 783.92 378.13 785.11 379.35C785.46 379.7 786.9 379.89 786.73 380.48C786.61 380.88 785.89 381.09 785.99 381.5C787.08 381.65 788.43 381.28 789.41 381.97C790.35 382.64 789.78 384.04 790.28 384.97C790.61 385.59 801.65 396.47 802.5 397C804.65 398.34 806.59 398.94 808.5 400.94C812.4 405.02 809.2 406.8 815.97 408.5C816.98 413.94 821.13 414.25 824.55 417.88C828.21 421.77 826.28 422.69 831.5 426C832.84 428.66 833.24 429.06 836.22 428.7C836.22 430.3 836.22 431.9 836.22 433.5C839.58 435.35 841.65 437.56 845.3 438.5C845.24 438.91 844.57 438.96 844.36 439.31C843.9 440.07 849.31 445.17 849.92 446.08C851.05 447.78 859.15 455.45 861.03 456.42C863.12 457.5 865.84 458.09 866.97 460.6C867.61 462.05 867.92 463.78 868.5 465.29C869.24 465.03 869.74 464.16 870.52 464.06C871.57 463.92 874.54 468.4 875.37 469.17C879.7 473.2 883.36 477.47 887.19 481.89C887.9 482.71 891.13 484.13 891.05 485.46C891.01 486.23 890.17 486.76 889.98 487.5C895.32 488.42 894.03 490.76 897.5 492.7C898.2 495.26 898.6 495.86 897.98 498.5C899.58 499.34 901.7 500.12 902.92 501.54C904.77 503.7 905.06 506.93 906.56 509.34C912.17 518.38 913.61 529.1 915.26 539.5C912.95 542.75 912.84 541.42 912.16 545.47C911.66 548.43 911.85 547.79 915.3 548.5C912.52 551.16 910.05 553.96 912.5 557.32C912.6 556.56 912.79 552.04 914.63 553.76C916.5 555.5 913.81 558.02 913.6 559.69C913.5 560.46 914.09 561.62 914.06 562.5C914.01 564.22 912.03 572.08 911.12 572.97C910.13 573.94 908.91 573.96 907.7 574.5C909.08 576.55 910.45 577.8 908.24 580.28C907.69 580.9 906.12 580.86 905.87 581.72C905.62 582.58 907.08 583.47 907.01 584.47C906.96 585.32 905.89 585.92 905.54 586.66C903.4 591.13 903.63 591.05 898.98 593.5C899.34 594.85 900.04 596.14 899.56 597.64C898.41 601.22 889.14 610.23 885.97 612.47C884.8 613.3 883.58 613.56 882.5 614.62C876.97 620.03 871.11 625.9 866.74 632.02C865.63 633.57 863.32 633.74 862.32 635.03C861.75 635.76 862.32 636.79 861.85 637.39C860.63 638.95 855.45 640.2 854.28 642.65C853.82 643.61 854.05 645.29 853.42 646.01C852.94 646.56 851.21 646.58 850.5 647C848.6 648.13 836.58 660.17 835.61 662.03C835.21 662.8 834.77 664.51 834.5 665.3C828.27 665.94 825.58 673.09 821.73 677.11C820.71 678.16 819.65 678.24 818.5 679C814.81 681.46 812.7 685.36 808.7 687.5C808.94 689.81 807.89 691.21 806.5 693.24C801.74 693.84 804.75 694.16 802.84 696.39C802.05 697.3 801.07 696.49 800.44 697.54C800.03 698.23 800.6 698.83 800 699.47C799.34 700.17 798.26 699.72 797.84 700.13C797.18 700.77 797.68 701.7 797.06 702.34C794.35 705.14 794.22 702.27 792.5 707.26C787.53 706.58 786.76 714.01 782.94 716.48C781.97 717.11 781.01 717.07 780.03 717.59C777.38 718.99 776.68 722.55 774.41 724.43C773.24 725.4 771.56 725.58 770.58 727.03C770.01 727.89 770.03 729.02 769.4 729.94C768.04 731.94 765.28 731.71 764 733.5C763.4 734.34 763.72 735.69 763.02 736.4C762.19 737.24 761.03 736.77 760.03 737.32C758.28 738.28 756.81 740.41 754.97 741.5C753.96 743.67 753.61 747.94 750.42 749.03C748.99 749.52 747.86 748.92 746.5 749.74C744.49 751.87 744 752.59 744.01 755.5C742.96 756.24 740.86 756.99 740.05 757.78C739.23 758.58 739.49 760.58 738.06 761.5C734.33 763.88 731.03 764.28 730.09 769.5C728.23 770.32 726.36 771.14 724.5 771.96C723.36 773.89 722.76 776.22 721.58 778C720.9 779.04 715.37 784.36 714.07 785.61C712.05 787.53 708.66 788.38 707.08 790.5C706.26 791.6 706.29 792.83 705.58 794C703.04 798.18 698.79 799.79 694.97 801.5C695.12 802.22 695.88 802.77 695.9 803.51C695.93 804.49 690.72 806.21 689.58 808.03C687.44 811.45 686.06 811.4 683.5 814.08C682.16 815.48 681.8 817.75 680.16 818.9C679.29 819.51 678.36 819.39 677.5 820C676.48 820.73 673.26 824.52 671.5 826C668.47 828.55 667.65 834.04 663.5 832.71C662.26 835.02 661.99 835.42 662.3 837.5C660.6 838.72 659.18 839.03 657.5 840C655.67 841.05 655.03 843.46 653.54 844.81C652.36 845.88 650.6 846.35 649.51 847.5C648.16 848.94 647.91 851.82 646.28 853.05C644.51 854.37 642.18 854.53 640.51 856.5C637.89 859.61 638.08 862.24 633.5 863C631.45 866.88 628.73 865.5 626.69 867.79C625.96 868.6 626.05 869.78 625.31 870.56C624.59 871.31 623.5 871.03 622.66 871.49C621.46 872.13 620.72 873.65 619.49 874.23C615.5 876.13 614.43 872.37 612.5 877.85C609.09 877.88 606.53 879.68 603.5 881.01C598.08 883.41 591.36 884.26 585.5 885.26C583.04 884.64 582.76 884.59 581.5 882.24C577.48 883.35 572.49 883.35 568.5 881.99C567.18 882.85 565.87 884.64 564.46 885.15C561.69 886.17 556.62 883.8 554 883.16C549.16 881.99 544.94 880.46 540.31 878.67C538.38 877.92 535.12 878.32 533.36 876.6C532.08 875.35 531.5 873.18 530.5 871.7C529.63 872.19 529.07 873.06 528 873.12C526.74 873.2 518.36 868.22 517.48 866.94C516.86 866.03 517.32 864.94 516.3 864.24C515.69 863.81 513.01 863.28 511.74 862.5C512.9 856.7 506.68 855.46 504.5 851.24C502.65 850.54 501.45 851.43 499.9 850.63C497.4 849.34 495.75 844.87 494.48 842.73C491.17 837.15 487.31 831.88 484.87 825.69C484.56 824.9 482.95 822.28 483.23 821.47C483.52 820.63 484.6 820.28 485.03 819.5C482.67 817.56 480.48 815.74 480.15 812.47C480.05 811.56 480.6 810.53 480.45 809.69C480.31 808.94 479.04 808.33 479.22 807.54C479.39 806.8 481.33 805.06 481.87 804.5C474.88 801.59 479.13 795.93 478.84 790.5C478.76 789.14 477.88 787.9 477.71 786.5C477.32 783.33 479.07 780.32 479.39 777.31C479.52 776.14 478.56 774.73 479.66 773.69C481.08 772.33 480.45 773.71 482.27 772.5C479.08 766.04 482.79 770.1 483.26 767.31C483.47 766.07 482.26 765.66 482.21 764.5C482.15 762.94 483.82 758.87 484.87 757.72C485.51 757.01 486.52 757 487.2 756.31C489.1 754.4 489.14 750.16 489.96 748.03C490.98 745.39 493.73 743.11 495.47 740.97C497.07 738.99 497.02 736.17 498.5 733.95C499.17 733.4 500.72 733.06 501.17 732.58C501.8 731.92 501.83 730.75 502.38 729.93C503.77 727.86 506.78 726.59 508.34 724.96C509.72 723.52 510.24 721.75 512.12 720.56C514.41 719.11 516.17 719.61 518.5 718.69C519.36 716.7 519.58 714.03 520.79 712.26C522.69 709.47 528.18 704.8 531 702.61C532.5 701.44 536.5 700.51 537.45 699.01C537.95 698.23 538.03 696.06 538.5 694.98C540.58 697.01 540.49 696.67 543.5 695.77C542.74 694.68 541.99 693.59 541.23 692.5C542.96 691.33 544.38 691.32 546.07 690.49C549.26 688.94 548.66 684.68 553.5 687.02C553.83 685.69 554.17 684.36 554.5 683.03C555.79 683.19 557.08 683.34 558.37 683.5C558.37 681.39 558.37 679.27 558.37 677.16C559.43 676.73 561.24 676.92 562.01 676.45C564.73 674.79 562.63 673.93 568.02 672.5C567.85 671.26 567.67 670.01 567.5 668.77C572.29 666.7 569.97 663.86 576.04 664.5C577.33 660.01 582.9 658.38 582.5 653.83C586.39 653.04 588.63 652.09 591.73 649.21C592.83 648.18 593.63 646.31 595.1 645.65C596.41 645.07 599.1 645.51 599.71 643.3C600.22 641.48 597.08 640.91 596.06 640.5C601.02 638.22 598.28 641.56 601.5 641.47C601.93 641.46 604.31 639.76 604.48 639.38C604.74 638.77 604.07 637.6 604.34 636.79C605.58 633.04 610.44 631.06 612.01 627.5C609.12 627.8 607.03 625.22 604.26 624.28C601.04 623.19 597.74 625.19 594.67 624.56C593.22 624.26 591.83 622.68 590.5 621.99C589.5 623.4 588.5 624.81 587.5 626.22C585.17 625.47 582.83 624.73 580.5 623.98C579.97 624.82 579.45 625.66 578.92 626.5C578.32 626.28 577.06 625.4 576.39 625.37C575.38 625.32 574.79 626.52 573.71 626.58C572.7 626.64 571.54 625.98 570.5 625.92C567.37 625.75 563.23 626.77 560.5 627.55C559.76 624.56 558.16 621.39 555.5 619.99C554.38 621.35 554.09 623.27 553.35 623.79C551.87 624.82 549.17 623.8 547.51 624.21C546.06 624.57 544.98 625.6 543.5 626.18C542.17 625.45 540.83 624.72 539.5 623.98C536.83 624.72 534.17 625.46 531.5 626.2C531.77 625.64 532.73 625.1 532.42 624.56C531.2 622.44 527.9 625.41 526.58 625.5C522.15 625.81 518.7 622.9 514.5 625.11C516.1 626.72 516.53 625.46 515.91 627.5C511.81 627.15 506.48 622.47 504.5 628.1C495.24 627.11 485.61 627.8 476.5 628.36C474.48 628.48 472.5 627.86 470.5 627.89C460.2 628.05 449.81 628.22 439.5 628.74C435.15 628.96 430.81 628.26 426.5 628.24C409.24 628.17 391.82 628.7 374.5 628.71C362.2 628.72 349.82 629.4 337.5 629.23C328.21 629.1 318.78 628.19 309.5 628.48C297.88 628.84 286.14 629.55 274.5 629.1C266.22 628.77 257.61 629.51 249.53 627.98C245.8 627.28 241 626.26 237.5 624.67C236.35 624.15 235.58 622.9 234.47 622.53C233.48 622.2 231.54 622.82 230.8 622.33C229.95 621.78 230.8 620.28 229.6 619.73C228.44 619.2 227.64 620.78 226.48 620.35C225.55 620.01 226.4 618.72 225.52 618.24C224.91 617.9 222.62 618.15 221.63 617.78C217 616.06 218.5 611.51 212.5 612.75C211.13 611.07 210.49 608.1 209.27 607.23C207.91 606.25 205.74 606.64 204.59 605.84C203.77 605.28 204.09 604.3 203.55 603.83C202.74 603.11 201.44 603.06 200.5 602.3C199.6 600.94 199.22 599.26 198.41 598.03C197.09 596.04 194.44 595.62 193.53 593.07C193.21 592.17 193.55 590.39 193.14 589.72C192.45 588.57 189.74 587.44 188.7 586.5C188.65 583.3 187.98 583.07 185.74 580.5C185.58 579.42 185.77 577.7 185.35 576.69C184.77 575.28 183.21 574.1 183.01 572.47C182.93 571.87 183.52 571.27 183.35 570.69C183.08 569.75 182.24 569.39 181.96 568.47C181.25 566.19 181.33 563.37 180.94 561C179.3 551 179.72 541.66 181.97 532C183.39 525.93 183.42 522.22 188.5 518C188.62 516.81 188.3 514.97 188.58 513.69C188.76 512.86 189.65 512.58 190.07 511.97C190.67 511.11 191.42 508.03 192.44 507.81C192.79 507.74 193.2 508.19 193.5 508C193.3 501.92 195.11 505.84 196.77 503.37C197.15 502.8 196.29 502.03 196.42 501.36C196.66 500.19 197.83 499.56 198.5 498.7C199.74 497.7 200.68 498.14 202.03 497.56C204.34 496.56 210.51 489.26 210.7 487.5C215.75 485.04 217.89 486.21 220.5 480.7C226.07 483.59 221.92 477.37 228.5 480.28C229.41 479.37 230.82 476.18 231.72 475.73C233.51 474.84 233.72 476.9 235.31 476.59C236.47 476.36 236.76 474.32 237.69 473.73C238.07 473.48 252.24 469.94 253.5 469.82C254.71 469.71 255.81 470.26 257 470.2C258.49 470.12 259.98 469.41 261.5 469.28C265.22 468.96 268.84 469.47 272.5 469.67C275.47 469.84 278.5 469.06 281.5 469.19C284.79 469.33 288.22 470.14 291.5 469.96C311.99 468.83 332.84 469.13 353.5 469.02C356.83 469 360.21 469.71 363.5 469.67C376.77 469.48 390.26 469.37 403.5 469.88C406.13 469.98 408.86 469.15 411.5 469.21C417.16 469.33 422.82 469.15 428.5 469.22C436.81 469.32 445.2 469.54 453.5 469.72C454.54 469.74 455.36 470.38 456.41 470.37C457.51 470.36 458.4 469.73 459.5 469.71C462.08 469.67 464.86 470.46 467.5 470.45C469.53 470.43 471.5 469.48 473.5 469.51C477.76 469.59 482.14 470.51 486.5 470.28C490.52 470.07 494.47 469.57 498.5 469.89C498.23 471.53 497.96 472.73 499.48 473.93C502.79 476.56 504.1 473.59 507 472.53C507.74 472.25 508.65 473.04 509.29 472.63C509.91 472.24 510.25 470.95 510.5 470.33C513.17 470.33 515.83 470.33 518.5 470.33C519.05 473.6 520.89 473.72 522.5 476.77C523.97 475.35 532.86 468.56 531.5 474.61C531.89 474.32 533.25 472.63 533.53 472.52C535.44 471.8 540.61 475.13 543.5 475.08C547.86 475 547.76 472.05 551.5 474.69C552.82 473.14 555.85 470.87 557.69 473.65C558.23 474.46 558.26 477.22 558.5 478.27C559.84 473.33 563.98 473.38 567.5 470.19C570.02 471.29 574.5 469.95 574.22 473.5C577.21 473.23 579.52 474.13 582.5 473.03C583.81 474.77 583.3 475.63 585.5 476.77C586.17 475.53 586.83 474.28 587.5 473.03C592.68 474.51 589.45 476.68 595.5 476.77C593.59 475.34 593.4 476.24 595.29 474.88C597.06 473.59 596.43 473.42 598.5 475.14C598.64 470.45 602.45 477.08 602.5 470.93C606.85 473.32 607.79 472.75 612.03 470.5C610.4 468.89 609.33 468.95 610.5 466.98C608.28 465.71 607.66 463.42 605.57 461.9C604.61 461.2 603.14 461.19 602.39 460.38C601.95 459.92 602.2 459.12 602.03 458.5C599.59 458.53 598.49 456.61 596.5 455.69C597.81 454.52 596.65 452.5 596.05 450.5C593.52 450.72 593.06 449.27 590.86 450.5C590.65 449.64 590.85 447.55 590.41 446.99C589.46 445.77 588.49 446.93 587.56 446.57C585.14 445.61 582.99 442.15 580.77 440.5C582.46 436.55 578.54 437.37 576.7 435.88C575.41 434.83 574.05 430.99 573.5 429.45C571.83 429.45 570.17 429.45 568.5 429.45C568.61 425.87 566.33 424.7 563.23 423.5C563.76 421.23 563.86 423.73 564.03 421.53C564.21 419.18 558.52 415.66 556.96 414.44C555.67 413.45 554.96 411.73 553.83 410.76C553.02 410.07 552.07 410.04 551.32 409.27C550.82 408.75 551.11 407.92 550.47 407.39C550.2 407.17 549.46 407.7 549.01 407.4C547.99 406.71 548.03 405.24 547.01 404.55C546.01 403.88 544.64 404.19 543.05 402.47C541.86 401.19 541.6 399.31 540.48 398.02C539.91 397.38 538.66 397.12 538.33 396.32C537.67 394.74 539.3 395.27 537.5 392.99C536.45 393.83 535.4 394.66 534.35 395.5C533.59 394.05 533.21 391.55 531.98 390.52C531.18 389.85 530.06 389.95 529.22 389.3C528.38 388.65 528.08 387.13 526.92 386.69C525.93 386.32 525.13 387.42 524.3 386.47C524.18 386.33 524.64 385.55 524.64 385.42C524.63 384.8 524.21 384.08 524.03 383.5C517.94 387.16 521.43 376.7 514.82 377.5C515.79 375.14 514.72 372.34 511.62 372.21C510.79 372.17 510.61 373.16 509.61 372.82C509.31 372.72 507.84 371.55 507.75 371.5C507.68 371.12 508.2 370.85 508.31 370.48C508.47 369.92 507.36 369.89 507.03 369.49C506.2 368.47 506.25 367.06 506.15 366.5C503.23 365.39 501.85 364.87 499.7 362.5C498.57 360.91 498.8 358.67 497.64 357.03C496.51 355.41 490.49 350.78 490.8 348.57C490.9 347.81 491.62 347.25 491.81 346.5C487.38 343.99 487.75 341.25 486.06 337.03C485.74 336.22 484.63 335.4 484.22 334.5C482.9 331.63 481.67 327.54 481.04 324.47C480.66 322.63 479.88 319.33 480.14 317.5C480.23 316.87 480.89 316.32 480.79 315.69C480.5 313.79 479.74 314.51 479.68 311.5C483.63 307.17 483.69 301.42 482.98 295.5C482.9 294.83 482.41 294.2 482.49 293.53C482.7 291.77 483.86 290.38 484.01 288.46C484.13 287.02 484.03 283.93 483.66 282.6C482.72 279.19 480.28 280.67 486.03 278.5C483.81 275.84 483.87 273.06 486.17 270.1C486.75 269.36 487.65 269.63 488.1 268.59C488.45 267.76 487.96 265.51 488.01 264.5C489.4 263.24 491.93 262.07 493.05 260.41C494.58 258.14 494.07 254.95 495.06 252.53C495.44 251.6 496.26 251.56 496.83 250.89C501.52 245.36 499.6 244.47 507.26 241.5C507.44 236.84 507.69 240.23 509.97 237.78C510.79 236.91 510.43 235.51 510.93 234.47C512.78 230.6 518.91 227.76 522.61 227.5C523.82 224.17 523.25 224.88 526.5 226.02C527.27 223.82 527.55 221.46 530.45 221.48C530.79 221.49 532.11 222.21 532.54 222.01C533.64 221.51 532.97 219.92 533.78 219.54C534.74 219.08 535.37 220.74 536.28 220.25C536.85 219.94 538.13 217.32 538.5 216.7C539.68 216.96 542.16 218.13 543.59 217.38C544.61 216.84 544.35 215.75 545.1 215.1C547.32 213.14 551.11 212.65 553.5 213.69C557.16 209.94 561.54 210.52 566.31 210.07C567.73 209.93 569 209.21 570.5 209.09C576.87 208.57 583.48 209.35 589.69 209.9C591.94 210.11 600.94 210.7 602.5 211.96C604.36 213.46 603.13 215.14 604.5 217.02Z"/>
</svg>
